<mxfile host="app.diagrams.net" modified="2023-05-20T06:56:34.371Z" agent="Mozilla/5.0 (Windows NT 10.0; Win64; x64) AppleWebKit/537.36 (KHTML, like Gecko) Chrome/113.0.0.0 Safari/537.36" version="21.3.2" etag="N8rMh0v6VVmxVyyZMUQW" type="github">
  <diagram name="Page-1" id="24c04xSn3-UK2PVPvnXE">
    <mxGraphModel>
      <root>
        <mxCell id="0" />
        <mxCell id="1" parent="0" />
      </root>
    </mxGraphModel>
  </diagram>
</mxfile>
